<svg width="150" height="150" viewBox="0 0 150 150" fill="none" xmlns="http://www.w3.org/2000/svg">
<path d="M0 19.0005C0 8.50708 8.50659 0.000488281 19 0.000488281H131C141.493 0.000488281 150 8.50708 150 19.0005V131C150 141.494 141.493 150 131 150H19C8.50659 150 0 141.494 0 131V19.0005Z" fill="#343A40"/>
<path d="M77.8348 50.0362C68.8584 49.9876 56.5915 50.1819 43.4536 50.9107C41.0341 51.0565 37.3806 51.2994 33.7998 53.6802C28.8156 56.9599 25.767 62.8876 25.767 70.2243C25.767 81.5695 33.1465 89.5621 43.4536 89.5621C50.8331 89.5621 57.4626 84.509 59.253 77.6582L72.1006 79.3345C70.1166 92.1616 58.019 101.369 43.1149 101.369C25.0895 101.369 12 88.3232 12 70.2729C12 68.0379 12.2178 56.5226 20.9522 47.8011C24.9202 43.8655 29.0333 42.0678 30.9448 41.2175C35.3725 39.3226 39.8969 38.5695 67.0922 38.5695H68.6165C68.6165 38.5695 68.6649 38.6181 68.6649 38.6424C74.4233 38.5695 80.2059 38.5695 85.9402 38.6424C96.0053 38.7153 101.062 38.8853 103.627 39.0068C108.006 39.1768 110.159 39.2983 110.934 39.3712C113.837 39.7599 124.628 41.2904 132.225 50.4977C138.419 58.0288 139 66.7989 139 70.2972C139 84.509 130.604 95.6356 117.878 99.6927V113.37C117.757 118.666 116.378 123.379 113.716 127.388C110.982 131.566 107.377 134.093 104.812 135.477C100.602 137.785 95.8602 139 91.0695 139H90.3195C89.1581 138.927 85.8192 138.708 81.8754 137.227C79.1898 136.206 76.746 134.773 74.5443 132.951C72.0764 130.934 69.9956 128.505 68.3987 125.711C67.3825 123.962 66.5841 122.092 66.0518 120.148H63.8259C60.9225 120.148 58.5755 117.451 58.5755 114.123V112.981C58.5755 109.677 60.9225 106.957 63.8259 106.957H83.9562C86.8354 106.957 89.1823 109.677 89.2065 112.981V114.123C89.2065 117.451 86.8596 120.148 83.9562 120.148H81.8028C82.4319 121.436 83.5207 122.845 85.2385 123.865C85.2385 123.865 85.9402 124.229 87.0532 124.594C88.1661 124.958 89.7146 125.298 91.4083 125.323C91.4325 125.323 96.9247 125.225 100.433 121.29C103.022 118.326 103.167 114.803 103.24 113.297C103.264 112.981 103.24 112.884 103.24 112.18L103.143 107.151C103.143 105.426 103.094 103.993 103.094 102.972V101.223C85.4805 99.5226 74.133 85.4322 75.9234 66.3859H107.232V75.3746H89.1823C89.642 83.4158 97.1425 89.635 106.385 89.635C117.37 89.635 125.257 81.4723 125.257 70.2972C125.257 63.5192 122.451 57.8831 117.878 54.4819C114.539 52.004 111.563 50.6435 107.304 50.1819L77.8348 50.0362Z" fill="#EFF1FA"/>
<path d="M104.298 34.6582V10H116.396V36.4559C115.67 36.1887 114.678 35.8729 113.468 35.5328C112.815 35.3627 112.283 35.217 111.629 35.0955C109.791 34.7311 108.315 34.7068 106.5 34.6582C105.944 34.6582 105.218 34.6339 104.298 34.6582Z" fill="#EFF1FA"/>
</svg>
